<?xml version="1.0" encoding="utf-8"?>
<!-- Generator: Adobe Illustrator 26.0.0, SVG Export Plug-In . SVG Version: 6.00 Build 0)  -->
<svg version="1.1" id="Capa_1" xmlns="http://www.w3.org/2000/svg" xmlns:xlink="http://www.w3.org/1999/xlink" x="0px" y="0px"
	 viewBox="0 0 155 34" style="enable-background:new 0 0 155 34;" xml:space="preserve">
<style type="text/css">
	.st0{opacity:0.5;fill:#FFFFFF;}
	.st1{font-family:'Poppins-Regular';}
	.st2{font-size:7.6397px;}
	.st3{letter-spacing:3;}
	.st4{fill:#FFCB38;}
	.st5{fill:#FFFFFF;}
</style>
<text transform="matrix(1 0 0 1 -0.0569 34.5879)" class="st0 st1 st2 st3">SOLUCIONES GLOBALES</text>
<g>
	<path class="st4" d="M39.56,11.58c0,6.53-5.29,11.81-11.81,11.81H11.76c-6.53,0-11.81-5.29-11.81-11.81S5.23-0.24,11.76-0.24h15.98
		C34.27-0.24,39.56,5.05,39.56,11.58z"/>
	<circle class="st5" cx="27.74" cy="11.58" r="10.42"/>
	<g>
		<path class="st5" d="M64.34,23.48h-5.77L48.92,8.86v14.62h-5.77v-23.7h5.77l9.65,14.68V-0.22h5.77V23.48z"/>
		<path class="st5" d="M89.73,23.48h-5.77L74.3,8.86v14.62h-5.77v-23.7h5.77l9.65,14.68V-0.22h5.77V23.48z"/>
		<path class="st5" d="M99.69,4.41V9.2h7.73v4.46h-7.73v5.2h8.74v4.63H93.91v-23.7h14.51v4.63H99.69z"/>
		<path class="st5" d="M112.71,5.33c1.01-1.83,2.42-3.26,4.24-4.29s3.87-1.54,6.16-1.54c2.81,0,5.22,0.74,7.22,2.23
			c2,1.49,3.34,3.51,4.02,6.08h-6.35c-0.47-0.99-1.14-1.74-2.01-2.26c-0.87-0.52-1.85-0.78-2.95-0.78c-1.78,0-3.22,0.62-4.32,1.86
			c-1.1,1.24-1.65,2.89-1.65,4.96s0.55,3.73,1.65,4.96c1.1,1.24,2.54,1.86,4.32,1.86c1.1,0,2.09-0.26,2.95-0.78
			c0.87-0.52,1.54-1.27,2.01-2.26h6.35c-0.67,2.56-2.01,4.59-4.02,6.06c-2,1.47-4.41,2.21-7.22,2.21c-2.3,0-4.35-0.51-6.16-1.53
			c-1.81-1.03-3.22-2.45-4.24-4.27s-1.52-3.9-1.52-6.25S111.7,7.17,112.71,5.33z"/>
		<path class="st5" d="M154.94-0.22v4.63h-6.28v19.07h-5.77V4.41h-6.28v-4.63H154.94z"/>
	</g>
</g>
</svg>
