<?xml version="1.0" encoding="UTF-8" standalone="no"?>
<svg
   width="145"
   height="46"
   viewBox="0 0 145 46"
   fill="none"
   version="1.1"
   id="svg986"
   sodipodi:docname="63c1259abd88a9d2cebc.svg"
   inkscape:version="1.2.2 (732a01da63, 2022-12-09)"
   xmlns:inkscape="http://www.inkscape.org/namespaces/inkscape"
   xmlns:sodipodi="http://sodipodi.sourceforge.net/DTD/sodipodi-0.dtd"
   xmlns="http://www.w3.org/2000/svg"
   xmlns:svg="http://www.w3.org/2000/svg">
  <sodipodi:namedview
     id="namedview988"
     pagecolor="#505050"
     bordercolor="#eeeeee"
     borderopacity="1"
     inkscape:showpageshadow="0"
     inkscape:pageopacity="0"
     inkscape:pagecheckerboard="0"
     inkscape:deskcolor="#505050"
     showgrid="false"
     inkscape:zoom="5.6568543"
     inkscape:cx="138.59293"
     inkscape:cy="43.31029"
     inkscape:window-width="1920"
     inkscape:window-height="1017"
     inkscape:window-x="1912"
     inkscape:window-y="-8"
     inkscape:window-maximized="1"
     inkscape:current-layer="svg986" />
  <defs
     id="defs984">
    <clipPath
       id="clip0_10456_446383">
      <rect
         width="190"
         height="46"
         fill="#ffffff"
         id="rect981"
         x="0"
         y="0" />
    </clipPath>
  </defs>
  <g
     id="g89"
     transform="matrix(0.49705297,0,0,-0.4834866,40.032149,0.01849023)">
    <path
       d="m 0,0 c -7.235,0.482 -13.369,-3.672 -18.228,-7.953 -9.232,-8.141 -12.595,-10.938 -12.595,-10.938 0,0 -3.363,2.797 -12.595,10.938 -4.858,4.281 -10.997,8.435 -18.228,7.953 -17.401,-1.159 -18.893,-17.4 -18.893,-17.4 v -4.472 -52.687 c 0,-9.444 6.959,-20.545 22.04,-20.545 25.985,0 23.201,24.409 23.201,24.409 l -12.32,14.377 v 3.77 l 16.795,-15.658 16.793,15.658 v -3.77 l -12.318,-14.377 c 0,0 -4.475,-24.409 23.198,-24.409 15.08,0 22.041,11.101 22.041,20.545 v 52.687 4.472 C 18.891,-17.4 17.4,-1.159 0,0"
       style="fill:#ffffff;fill-opacity:1;fill-rule:nonzero;stroke:none"
       id="path91" />
  </g>
  <g
     id="g93"
     transform="matrix(0.49705297,0,0,-0.4834866,35.828083,22.328265)">
    <path
       d="m 0,0 c 0,0 3.454,5.042 1.256,11.079 -1.036,2.853 -5.116,7.029 -11.001,7.091 -2.834,0.029 -5.147,-0.567 -6.888,-1.393 -4.619,-2.197 -5.725,-5.963 -5.732,-5.984 -0.009,0.021 -1.114,3.787 -5.734,5.984 -1.736,0.826 -4.051,1.422 -6.888,1.393 -5.881,-0.062 -9.964,-4.238 -11.002,-7.091 C -48.184,5.042 -44.73,0 -44.73,0 c 0,0 -8.84,-0.768 -8.048,-8.811 0.91,-9.209 11.995,-11.648 11.995,-11.648 0,0 -0.773,-5.566 4.673,-7.672 2.296,-0.887 4.737,-0.793 7.16,0.856 1.509,1.026 2.11,2.723 2.11,2.723 l -12.32,14.377 v 3.77 l 16.793,-15.657 h 0.002 v 0 l 16.793,15.657 v -3.77 L -17.89,-24.552 c 0,0 0.599,-1.697 2.112,-2.723 2.422,-1.649 4.861,-1.743 7.158,-0.856 5.447,2.106 4.673,7.672 4.673,7.672 0,0 11.086,2.439 11.993,11.648 C 8.841,-0.768 0,0 0,0"
       style="fill:#a3d55f;fill-opacity:1;fill-rule:nonzero;stroke:none"
       id="path95" />
  </g>
  <g
     id="g97"
     transform="matrix(0.49705297,0,0,-0.4834866,70.003612,8.972907)">
    <path
       d="M 0,0 C 3.132,0 5.572,-0.853 7.319,-2.557 9.067,-4.26 9.942,-6.617 9.942,-9.631 V -23.579 H 4.364 v 14.307 c 0,1.482 -0.374,2.599 -1.119,3.356 -0.748,0.754 -2.138,1.132 -4.171,1.132 -1.605,0 -3.185,-0.181 -4.741,-0.545 0.658,-0.74 0.986,-2.183 0.986,-4.328 v -13.922 h -5.576 v 14.444 c 0,1.419 -0.366,2.485 -1.097,3.195 -0.731,0.711 -2.099,1.065 -4.104,1.065 -1.326,0 -2.607,-0.12 -3.843,-0.363 v -18.341 h -5.578 v 20.97 c 3.465,1.755 6.871,2.622 10.214,2.609 2.513,0 4.608,-0.574 6.289,-1.716 C -5.493,-0.574 -2.701,0 0,0"
       style="fill:#ffffff;fill-opacity:1;fill-rule:nonzero;stroke:none"
       id="path99" />
  </g>
  <g
     id="g101"
     transform="matrix(0.49705297,0,0,-0.4834866,83.397342,11.96497)">
    <path
       d="m 0,0 c -0.794,1.102 -1.887,1.654 -3.276,1.654 -1.391,0 -2.476,-0.45 -3.255,-1.348 -0.777,-0.9 -1.241,-2.355 -1.395,-4.366 H 1.416 C 1.266,-2.457 0.793,-1.103 0,0 m -2.03,-12.968 c 2.721,0 5.35,0.597 7.889,1.792 v -4.489 c -2.571,-1.391 -5.478,-2.086 -8.73,-2.086 -1.025,0 -1.992,0.083 -2.9,0.25 -0.907,0.165 -1.847,0.513 -2.82,1.043 -0.972,0.528 -1.809,1.201 -2.51,2.017 -0.7,0.817 -1.276,1.945 -1.725,3.39 -0.449,1.443 -0.674,3.11 -0.674,4.998 0,3.724 0.826,6.699 2.482,8.924 1.655,2.227 4.28,3.339 7.877,3.339 3.401,0 5.973,-1.082 7.719,-3.248 1.744,-2.166 2.618,-4.832 2.618,-7.994 0,-1.302 -0.03,-2.261 -0.091,-2.88 H -7.926 c 0.154,-2.011 0.755,-3.355 1.804,-4.034 1.049,-0.682 2.414,-1.022 4.092,-1.022"
       style="fill:#ffffff;fill-opacity:1;fill-rule:nonzero;stroke:none"
       id="path103" />
  </g>
  <g
     id="g105"
     transform="matrix(0.49705297,0,0,-0.4834866,93.86557,8.951212)">
    <path
       d="m 0,0 c 3.234,0 5.761,-0.847 7.582,-2.537 1.822,-1.693 2.732,-4.064 2.732,-7.112 V -23.624 H 4.737 v 14.396 c 0,0.622 -0.055,1.139 -0.169,1.554 -0.113,0.414 -0.339,0.851 -0.681,1.303 -0.34,0.455 -0.894,0.794 -1.666,1.02 -0.77,0.228 -1.76,0.341 -2.969,0.341 -1.36,0 -2.797,-0.136 -4.309,-0.409 v -18.205 h -5.575 V -2.586 C -7.23,-0.862 -3.688,0 0,0"
       style="fill:#ffffff;fill-opacity:1;fill-rule:nonzero;stroke:none"
       id="path107" />
  </g>
  <g
     id="g109"
     transform="matrix(0.49705297,0,0,-0.4834866,103.4838,14.508446)">
    <path
       d="m 0,0 c 0,-2.721 0.354,-4.686 1.065,-5.894 0.711,-1.21 1.95,-1.813 3.719,-1.813 2.809,0 4.215,0.831 4.215,2.494 V 6.619 C 7.912,6.861 6.687,6.989 5.326,7.005 3.589,7.005 2.267,6.486 1.36,5.451 0.453,4.417 0,2.6 0,0 m -5.576,-0.295 c 0,3.748 0.921,6.621 2.764,8.615 1.845,1.995 4.497,2.993 7.958,2.993 1.239,0 2.525,-0.12 3.853,-0.356 v 8.946 h 5.576 V -4.692 c 0,-2.131 -0.803,-3.963 -2.413,-5.497 -1.608,-1.533 -4.069,-2.301 -7.378,-2.301 -0.771,0 -1.539,0.06 -2.302,0.182 -0.764,0.12 -1.653,0.438 -2.674,0.952 -1.02,0.513 -1.909,1.177 -2.664,1.996 -0.757,0.814 -1.399,2.011 -1.926,3.592 -0.53,1.579 -0.794,3.403 -0.794,5.473"
       style="fill:#ffffff;fill-opacity:1;fill-rule:nonzero;stroke:none"
       id="path111" />
  </g>
  <g
     id="g113"
     transform="matrix(0.49705297,0,0,-0.4834866,115.5864,17.613347)">
    <path
       d="m 0,0 c 0.885,-1.007 2.24,-1.512 4.069,-1.512 1.829,0 3.181,0.505 4.058,1.512 0.875,1.009 1.314,2.956 1.314,5.844 0,2.888 -0.439,4.84 -1.314,5.854 C 7.25,12.715 5.898,13.224 4.069,13.224 2.24,13.224 0.885,12.715 0,11.698 -0.883,10.684 -1.326,8.732 -1.326,5.844 -1.326,2.956 -0.883,1.009 0,0 m -4.068,14.705 c 1.888,2.051 4.597,3.075 8.127,3.075 3.527,0 6.236,-1.024 8.127,-3.075 1.888,-2.05 2.834,-5 2.834,-8.85 0,-3.849 -0.946,-6.8 -2.834,-8.849 -1.891,-2.05 -4.6,-3.074 -8.127,-3.074 -3.53,0 -6.239,1.024 -8.127,3.074 -1.889,2.049 -2.836,5 -2.836,8.849 0,3.85 0.947,6.8 2.836,8.85"
       style="fill:#ffffff;fill-opacity:1;fill-rule:nonzero;stroke:none"
       id="path115" />
  </g>
  <g
     id="g117"
     transform="matrix(0.49705297,0,0,-0.4834866,132.78424,11.614631)">
    <path
       d="m 0,0 -10.951,-13.103 h 10.836 v -5.012 h -17.623 v 5.199 L -7.053,0.045 h -10.451 v 5.01 H 0 Z"
       style="fill:#ffffff;fill-opacity:1;fill-rule:nonzero;stroke:none"
       id="path119" />
  </g>
  <g
     id="g121"
     transform="matrix(0.49705297,0,0,-0.4834866,141.03705,16.449008)">
    <path
       d="m 0,0 v 2.886 c -1.297,0.177 -2.404,0.273 -3.324,0.29 -3.483,0 -5.231,-0.991 -5.246,-2.973 0,-2.447 1.455,-3.671 4.365,-3.671 C -1.402,-3.482 0,-2.326 0,0 m -4.635,15.395 c 3.307,0 5.834,-0.843 7.584,-2.527 1.75,-1.682 2.627,-4.118 2.627,-7.304 v -6.25 c 0,-2.127 -0.797,-3.96 -2.39,-5.492 -1.59,-1.532 -4.041,-2.299 -7.346,-2.299 -3.422,0 -5.94,0.776 -7.557,2.328 -1.619,1.549 -2.429,3.436 -2.429,5.657 0,0.467 0.046,0.944 0.137,1.432 0.091,0.491 0.331,1.105 0.718,1.842 0.387,0.738 0.914,1.385 1.586,1.943 0.668,0.557 1.656,1.034 2.963,1.433 1.306,0.401 2.847,0.599 4.627,0.599 1.265,0 2.623,-0.105 4.07,-0.317 0,2.901 -1.635,4.354 -4.904,4.354 -2.615,0 -4.883,-0.396 -6.809,-1.182 v 4.557 c 2.139,0.817 4.514,1.226 7.123,1.226"
       style="fill:#ffffff;fill-opacity:1;fill-rule:nonzero;stroke:none"
       id="path123" />
  </g>
  <g
     id="g125"
     transform="matrix(0.49705297,0,0,-0.4834866,63.497535,37.662475)">
    <path
       d="M 0,0 C 2.121,0 4.009,0.46 5.712,1.15 V -3.455 C 3.729,-4.239 1.521,-4.743 -0.92,-4.743 c -7.001,0 -10.87,4.187 -10.87,11.834 0,7.649 3.869,11.885 10.87,11.885 2.441,0 4.649,-0.506 6.632,-1.289 V 13.08 C 4.009,13.771 2.121,14.185 0,14.185 c -3.869,0 -6.267,-1.15 -6.267,-7.094 C -6.267,1.197 -3.869,0 0,0"
       style="fill:#a3d55f;fill-opacity:1;fill-rule:nonzero;stroke:none"
       id="path127" />
  </g>
  <path
     d="m 67.413416,28.665812 h 2.747202 v 11.112939 h -2.747202 z m -0.04586,-3.965079 h 2.816792 v 2.451272 h -2.816792 z"
     style="fill:#a3d55f;fill-opacity:1;fill-rule:nonzero;stroke:none;stroke-width:0.490221"
     id="path129" />
  <g
     id="g131"
     transform="matrix(0.49705297,0,0,-0.4834866,82.364426,28.666001)">
    <path
       d="m 0,0 v -12.573 c 0,-6.774 -3.867,-10.778 -10.412,-10.778 -6.491,0 -10.362,4.004 -10.362,10.778 V 0 h 5.572 v -13.312 c 0,-3.683 1.386,-5.203 4.79,-5.203 3.455,0 4.836,1.52 4.836,5.203 V 0 Z"
       style="fill:#a3d55f;fill-opacity:1;fill-rule:nonzero;stroke:none"
       id="path133" />
  </g>
  <g
     id="g135"
     transform="matrix(0.49705297,0,0,-0.4834866,88.845503,37.662475)">
    <path
       d="M 0,0 C 2.484,0 4.189,0.552 4.189,2.486 V 14.232 C 3.174,14.463 1.977,14.599 0.55,14.599 -2.627,14.599 -4.748,13.08 -4.748,7.646 -4.748,2.394 -3.547,0 0,0 m 0.365,18.976 c 1.291,0 2.578,-0.139 3.824,-0.369 v 8.8 H 9.716 V 2.994 c 0,-3.733 -2.581,-7.737 -9.716,-7.737 -3.09,0 -10.273,1.195 -10.273,12.111 0,7.511 3.775,11.608 10.638,11.608"
       style="fill:#a3d55f;fill-opacity:1;fill-rule:nonzero;stroke:none"
       id="path137" />
  </g>
  <g
     id="g139"
     transform="matrix(0.49705297,0,0,-0.4834866,101.61984,34.499511)">
    <path
       d="m 0,0 c -0.968,0.136 -2.071,0.271 -3.314,0.271 -3.73,0 -5.207,-1.103 -5.207,-2.992 0,-2.394 1.432,-3.683 4.332,-3.683 3.083,0 4.189,1.382 4.189,3.501 z m 5.528,2.67 v -6.218 c 0,-3.733 -2.534,-7.737 -9.674,-7.737 -7.275,0 -9.856,4.052 -9.856,7.874 0,1.703 0.69,7.231 9.901,7.231 1.43,0 2.81,-0.136 4.056,-0.322 0,2.488 -1.29,4.33 -4.884,4.33 -2.764,0 -5.018,-0.46 -6.723,-1.152 v 4.469 c 1.934,0.783 4.284,1.289 7.046,1.289 6.543,0 10.134,-3.453 10.134,-9.764"
       style="fill:#a3d55f;fill-opacity:1;fill-rule:nonzero;stroke:none"
       id="path141" />
  </g>
  <g
     id="g143"
     transform="matrix(0.49705297,0,0,-0.4834866,110.36634,37.662475)">
    <path
       d="m 0,0 c 2.492,0 4.192,0.552 4.192,2.486 v 11.746 c -1.01,0.231 -2.208,0.367 -3.639,0.367 -3.178,0 -5.296,-1.519 -5.296,-6.953 C -4.743,2.394 -3.547,0 0,0 m 0.369,18.976 c 1.291,0 2.58,-0.139 3.823,-0.369 v 8.8 H 9.719 V 2.994 c 0,-3.733 -2.578,-7.737 -9.719,-7.737 -3.085,0 -10.271,1.195 -10.271,12.111 0,7.511 3.775,11.608 10.64,11.608"
       style="fill:#a3d55f;fill-opacity:1;fill-rule:nonzero;stroke:none"
       id="path145" />
  </g>
</svg>
